<?xml version="1.0" encoding="UTF-8"?><svg id="a" xmlns="http://www.w3.org/2000/svg" width="24" height="24" viewBox="0 0 24 24"><path d="m12,3.25C7.17529,3.25,3.25,7.1748,3.25,12s3.92529,8.75,8.75,8.75,8.75-3.9248,8.75-8.75S16.82471,3.25,12,3.25Zm0,16c-3.99756,0-7.25-3.25195-7.25-7.25s3.25244-7.25,7.25-7.25,7.25,3.25195,7.25,7.25-3.25244,7.25-7.25,7.25ZM2,4.51715v-2.31714c0-.11047.08954-.20001.20001-.20001h2.31714c.17816,0,.2674.21539.14142.34143l-2.31714,2.31714c-.12598.12598-.34143.03674-.34143-.14142Zm20-2.31714v2.31714c0,.17816-.21545.2674-.34143.14142l-2.31714-2.31714c-.12598-.12604-.03674-.34143.14142-.34143h2.31714c.11047,0,.20001.08954.20001.20001ZM4.65857,21.65857c.12598.12598.03674.34143-.14142.34143h-2.31714c-.11047,0-.20001-.08954-.20001-.20001v-2.31714c0-.17822.21545-.26746.34143-.14142l2.31714,2.31714Zm17.34143-2.17572v2.31714c0,.11047-.08954.20001-.20001.20001h-2.31714c-.17816,0-.2674-.21545-.14142-.34143l2.31714-2.31714c.12598-.12604.34143-.0368.34143.14142Z" stroke-width="0"/></svg>