<?xml version="1.0" encoding="UTF-8"?><svg id="a" xmlns="http://www.w3.org/2000/svg" width="24" height="24" viewBox="0 0 24 24"><path d="m21.53027,14.53027c-.14648.14648-.33789.21973-.53027.21973s-.38379-.07324-.53027-.21973l-2.71973-2.71973v9.18945c0,.41406-.33594.75-.75.75s-.75-.33594-.75-.75v-9.18945l-2.71973,2.71973c-.29297.29297-.76758.29297-1.06055,0s-.29297-.76758,0-1.06055l4-4c.29297-.29297.76758-.29297,1.06055,0l4,4c.29297.29297.29297.76758,0,1.06055Zm-11.06055-5.06055l-2.71973,2.71973V3c0-.41406-.33594-.75-.75-.75s-.75.33594-.75.75v9.18945l-2.71973-2.71973c-.29297-.29297-.76758-.29297-1.06055,0s-.29297.76758,0,1.06055l4,4c.14648.14648.33789.21973.53027.21973s.38379-.07324.53027-.21973l4-4c.29297-.29297.29297-.76758,0-1.06055s-.76758-.29297-1.06055,0Z" stroke-width="0"/></svg>