<?xml version="1.0" encoding="UTF-8"?><svg id="a" xmlns="http://www.w3.org/2000/svg" width="24" height="24" viewBox="0 0 24 24"><path d="m21.75,7c0,.41406-.33594.75-.75.75h-9.18945l2.71973,2.71973c.29297.29297.29297.76758,0,1.06055-.14648.14648-.33789.21973-.53027.21973s-.38379-.07324-.53027-.21973l-4-4c-.29297-.29297-.29297-.76758,0-1.06055l4-4c.29297-.29297.76758-.29297,1.06055,0s.29297.76758,0,1.06055l-2.71973,2.71973h9.18945c.41406,0,.75.33594.75.75Zm-11.21973,5.46973c-.29297-.29297-.76758-.29297-1.06055,0s-.29297.76758,0,1.06055l2.71973,2.71973H3c-.41406,0-.75.33594-.75.75s.33594.75.75.75h9.18945l-2.71973,2.71973c-.29297.29297-.29297.76758,0,1.06055.14648.14648.33789.21973.53027.21973s.38379-.07324.53027-.21973l4-4c.29297-.29297.29297-.76758,0-1.06055l-4-4Z" stroke-width="0"/></svg>