<?xml version="1.0" encoding="UTF-8"?><svg id="a" xmlns="http://www.w3.org/2000/svg" width="24" height="24" viewBox="0 0 24 24"><path d="m2.75,5v14c0,.41406-.33594.75-.75.75s-.75-.33594-.75-.75V5c0-.41406.33594-.75.75-.75s.75.33594.75.75Zm3.25-.75c-.41406,0-.75.33594-.75.75v14c0,.41406.33594.75.75.75s.75-.33594.75-.75V5c0-.41406-.33594-.75-.75-.75Zm8,0c-.41406,0-.75.33594-.75.75v14c0,.41406.33594.75.75.75s.75-.33594.75-.75V5c0-.41406-.33594-.75-.75-.75Zm4,0c-.41406,0-.75.33594-.75.75v14c0,.41406.33594.75.75.75s.75-.33594.75-.75V5c0-.41406-.33594-.75-.75-.75Zm4,0c-.41406,0-.75.33594-.75.75v14c0,.41406.33594.75.75.75s.75-.33594.75-.75V5c0-.41406-.33594-.75-.75-.75Z" stroke-width="0"/></svg>