<?xml version="1.0" encoding="UTF-8"?><svg id="a" xmlns="http://www.w3.org/2000/svg" width="24" height="24" viewBox="0 0 24 24"><path d="m7,1.25029c-2.06738,0-3.75,1.68262-3.75,3.75v2c0,2.06738,1.68262,3.75,3.75,3.75s3.75-1.68262,3.75-3.75v-2c0-2.06738-1.68262-3.75-3.75-3.75Zm2.25,5.75c0,1.24023-1.00977,2.25-2.25,2.25s-2.25-1.00977-2.25-2.25v-2c0-1.24023,1.00977-2.25,2.25-2.25s2.25,1.00977,2.25,2.25v2Zm7.75,6.25c-2.06738,0-3.75,1.68262-3.75,3.75v2c0,2.06738,1.68262,3.75,3.75,3.75s3.75-1.68262,3.75-3.75v-2c0-2.06738-1.68262-3.75-3.75-3.75Zm2.25,5.75c0,1.24023-1.00977,2.25-2.25,2.25s-2.25-1.00977-2.25-2.25v-2c0-1.24023,1.00977-2.25,2.25-2.25s2.25,1.00977,2.25,2.25v2Zm-6-9c0-.41406.33594-.75.75-.75h2.25V3.21416l-.91504.45703c-.37109.18457-.82031.03516-1.00586-.33594-.18555-.37012-.03516-.82031.33594-1.00586l2-1c.23047-.11621.50684-.10547.72949.0332.2207.13672.35547.37793.35547.6377v7.25h2.25c.41406,0,.75.33594.75.75s-.33594.75-.75.75h-6c-.41406,0-.75-.33594-.75-.75Zm-2.5,12c0,.41406-.33594.75-.75.75h-6c-.41406,0-.75-.33594-.75-.75s.33594-.75.75-.75h2.25v-6.03613l-.91504.45703c-.37012.18457-.82031.03516-1.00586-.33594-.18555-.37012-.03516-.82031.33594-1.00586l2-1c.23145-.11621.50684-.10449.72949.0332.2207.13672.35547.37793.35547.6377v7.25h2.25c.41406,0,.75.33594.75.75Z" stroke-width="0"/></svg>