<?xml version="1.0" encoding="UTF-8"?><svg id="a" xmlns="http://www.w3.org/2000/svg" width="24" height="24" viewBox="0 0 24 24"><path d="m4.24805,12c.91113.68457,1.50195,1.7749,1.50195,3v3c0,.68945.56055,1.25,1.25,1.25h2c.41406,0,.75.33594.75.75s-.33594.75-.75.75h-2c-1.5166,0-2.75-1.2334-2.75-2.75v-3c0-1.24072-1.00977-2.25-2.25-2.25-.41406,0-.75-.33594-.75-.75s.33594-.75.75-.75c1.24023,0,2.25-1.00928,2.25-2.25v-3c0-1.5166,1.2334-2.75,2.75-2.75h2c.41406,0,.75.33594.75.75s-.33594.75-.75.75h-2c-.68945,0-1.25.56055-1.25,1.25v3c0,1.2251-.59082,2.31543-1.50195,3Zm17.75195-.75c-1.24023,0-2.25-1.00928-2.25-2.25v-3c0-1.5166-1.2334-2.75-2.75-2.75h-2c-.41406,0-.75.33594-.75.75s.33594.75.75.75h2c.68945,0,1.25.56055,1.25,1.25v3c0,1.2251.59082,2.31543,1.50195,3-.91113.68457-1.50195,1.7749-1.50195,3v3c0,.68945-.56055,1.25-1.25,1.25h-2c-.41406,0-.75.33594-.75.75s.33594.75.75.75h2c1.5166,0,2.75-1.2334,2.75-2.75v-3c0-1.24072,1.00977-2.25,2.25-2.25.41406,0,.75-.33594.75-.75s-.33594-.75-.75-.75Z" stroke-width="0"/></svg>