<?xml version="1.0" encoding="UTF-8"?><svg id="a" xmlns="http://www.w3.org/2000/svg" width="24" height="24" viewBox="0 0 24 24"><path d="m4.75,6v12c0,.68945.56055,1.25,1.25,1.25h3c.41406,0,.75.33594.75.75s-.33594.75-.75.75h-3c-1.5166,0-2.75-1.2334-2.75-2.75V6c0-1.5166,1.2334-2.75,2.75-2.75h3c.41406,0,.75.33594.75.75s-.33594.75-.75.75h-3c-.68945,0-1.25.56055-1.25,1.25Zm13.25-2.75h-3c-.41406,0-.75.33594-.75.75s.33594.75.75.75h3c.68945,0,1.25.56055,1.25,1.25v12c0,.68945-.56055,1.25-1.25,1.25h-3c-.41406,0-.75.33594-.75.75s.33594.75.75.75h3c1.5166,0,2.75-1.2334,2.75-2.75V6c0-1.5166-1.2334-2.75-2.75-2.75Z" stroke-width="0"/></svg>