<?xml version="1.0" encoding="UTF-8"?><svg id="a" xmlns="http://www.w3.org/2000/svg" width="24" height="24" viewBox="0 0 24 24"><path d="m8.53027,8.53027l-3.46973,3.46973,3.46973,3.46973c.29297.29297.29297.76758,0,1.06055-.14648.14648-.33838.21973-.53027.21973s-.38379-.07324-.53027-.21973l-4-4c-.29297-.29297-.29297-.76758,0-1.06055l4-4c.29297-.29297.76758-.29297,1.06055,0s.29297.76758,0,1.06055Zm8-1.06055c-.29297-.29297-.76758-.29297-1.06055,0s-.29297.76758,0,1.06055l3.46973,3.46973-3.46973,3.46973c-.29297.29297-.29297.76758,0,1.06055.14648.14648.33838.21973.53027.21973s.38379-.07324.53027-.21973l4-4c.29297-.29297.29297-.76758,0-1.06055l-4-4Z" stroke-width="0"/></svg>