<?xml version="1.0" encoding="UTF-8"?><svg id="a" xmlns="http://www.w3.org/2000/svg" width="24" height="24" viewBox="0 0 24 24"><path d="m8.96973,6.46973l1.96973-1.96973-1.96973-1.96973c-.29297-.29297-.29297-.76758,0-1.06055s.76758-.29297,1.06055,0l1.96973,1.96973,1.96973-1.96973c.29297-.29297.76758-.29297,1.06055,0s.29297.76758,0,1.06055l-1.96973,1.96973,1.96973,1.96973c.29297.29297.29297.76758,0,1.06055-.14648.14648-.33789.21973-.53027.21973s-.38379-.07324-.53027-.21973l-1.96973-1.96973-1.96973,1.96973c-.14648.14648-.33838.21973-.53027.21973s-.38379-.07324-.53027-.21973c-.29297-.29297-.29297-.76758,0-1.06055Zm12.78027,12.53027c0,2.06738-1.68262,3.75-3.75,3.75s-3.75-1.68262-3.75-3.75c0-1.81055,1.29065-3.3255,3-3.67413v-1.32587c0-.68945-.56055-1.25-1.25-1.25h-8c-.68945,0-1.25.56055-1.25,1.25v1.32587c1.70966.34851,3,1.86353,3,3.67413,0,2.06738-1.68213,3.75-3.75,3.75s-3.75-1.68262-3.75-3.75c0-1.81061,1.29034-3.32562,3-3.67413v-1.32587c0-1.5166,1.2334-2.75,2.75-2.75h8c1.5166,0,2.75,1.2334,2.75,2.75v1.32587c1.70935.34863,3,1.86359,3,3.67413Zm-15.75-2.25c-1.24072,0-2.25,1.00977-2.25,2.25s1.00928,2.25,2.25,2.25,2.25-1.00977,2.25-2.25-1.00928-2.25-2.25-2.25Zm14.25,2.25c0-1.24023-1.00977-2.25-2.25-2.25s-2.25,1.00977-2.25,2.25,1.00977,2.25,2.25,2.25,2.25-1.00977,2.25-2.25Z" stroke-width="0"/></svg>