<?xml version="1.0" encoding="UTF-8"?><svg id="a" xmlns="http://www.w3.org/2000/svg" width="24" height="24" viewBox="0 0 24 24"><path d="m8.25,5c0-.41406.33594-.75.75-.75h2.25v-2.25c0-.41406.33594-.75.75-.75s.75.33594.75.75v2.25h2.25c.41406,0,.75.33594.75.75s-.33594.75-.75.75h-2.25v2.25c0,.41406-.33594.75-.75.75s-.75-.33594-.75-.75v-2.25h-2.25c-.41406,0-.75-.33594-.75-.75Zm13.5,14c0,2.06738-1.68213,3.75-3.75,3.75s-3.75-1.68262-3.75-3.75c0-1.81061,1.29034-3.32562,3-3.67413v-1.32587c0-.68945-.56055-1.25-1.25-1.25h-8c-.68945,0-1.25.56055-1.25,1.25v1.32587c1.70966.34851,3,1.86353,3,3.67413,0,2.06738-1.68213,3.75-3.75,3.75s-3.75-1.68262-3.75-3.75c0-1.81061,1.29034-3.32562,3-3.67413v-1.32587c0-1.5166,1.2334-2.75,2.75-2.75h8c1.5166,0,2.75,1.2334,2.75,2.75v1.32587c1.70966.34851,3,1.86353,3,3.67413Zm-15.75-2.25c-1.24072,0-2.25,1.00977-2.25,2.25s1.00928,2.25,2.25,2.25,2.25-1.00977,2.25-2.25-1.00928-2.25-2.25-2.25Zm14.25,2.25c0-1.24023-1.00928-2.25-2.25-2.25s-2.25,1.00977-2.25,2.25,1.00928,2.25,2.25,2.25,2.25-1.00977,2.25-2.25Z" stroke-width="0"/></svg>