<?xml version="1.0" encoding="UTF-8"?><svg id="a" xmlns="http://www.w3.org/2000/svg" width="24" height="24" viewBox="0 0 24 24"><path d="m22,11.25h-5.32587c-.36261-2.26166-2.31183-4-4.67413-4s-4.31152,1.73834-4.67413,4H2c-.41406,0-.75.33594-.75.75s.33594.75.75.75h5.32587c.36261,2.26166,2.31183,4,4.67413,4s4.31152-1.73834,4.67413-4h5.32587c.41406,0,.75-.33594.75-.75s-.33594-.75-.75-.75Zm-10,4c-1.79199,0-3.25-1.45801-3.25-3.25s1.45801-3.25,3.25-3.25,3.25,1.45801,3.25,3.25-1.45801,3.25-3.25,3.25Z" stroke-width="0"/></svg>