<?xml version="1.0" encoding="UTF-8"?><svg id="a" xmlns="http://www.w3.org/2000/svg" width="24" height="24" viewBox="0 0 24 24"><path d="m8.75,18c0-1.81104-1.29034-3.32581-3-3.67419v-4.65161c1.70966-.34839,3-1.86316,3-3.67419,0-2.06787-1.68213-3.75-3.75-3.75s-3.75,1.68213-3.75,3.75c0,1.81104,1.29034,3.32581,3,3.67419v4.65161c-1.70966.34839-3,1.86316-3,3.67419,0,2.06787,1.68213,3.75,3.75,3.75s3.75-1.68213,3.75-3.75ZM2.75,6c0-1.24072,1.00928-2.25,2.25-2.25s2.25,1.00928,2.25,2.25-1.00928,2.25-2.25,2.25-2.25-1.00928-2.25-2.25Zm0,12c0-1.24072,1.00928-2.25,2.25-2.25s2.25,1.00928,2.25,2.25-1.00928,2.25-2.25,2.25-2.25-1.00928-2.25-2.25Zm17-3.67419v-6.32581c0-1.5166-1.2334-2.75-2.75-2.75h-2.18945l1.71973-1.71973c.29297-.29297.29297-.76758,0-1.06055s-.76758-.29297-1.06055,0l-3,3c-.29297.29297-.29297.76758,0,1.06055l3,3c.14648.14648.33789.21973.53027.21973s.38379-.07324.53027-.21973c.29297-.29297.29297-.76758,0-1.06055l-1.71973-1.71973h2.18945c.68945,0,1.25.56055,1.25,1.25v6.32581c-1.70935.34851-3,1.86322-3,3.67419,0,2.06787,1.68262,3.75,3.75,3.75s3.75-1.68213,3.75-3.75c0-1.81097-1.29065-3.32568-3-3.67419Zm-.75,5.92419c-1.24023,0-2.25-1.00928-2.25-2.25s1.00977-2.25,2.25-2.25,2.25,1.00928,2.25,2.25-1.00977,2.25-2.25,2.25Z" stroke-width="0"/></svg>