<?xml version="1.0" encoding="UTF-8"?><svg id="a" xmlns="http://www.w3.org/2000/svg" width="24" height="24" viewBox="0 0 24 24"><path d="m15.32587,5.75c.34863,1.70935,1.86359,3,3.67413,3,2.06738,0,3.75-1.68262,3.75-3.75s-1.68262-3.75-3.75-3.75c-1.81055,0-3.3255,1.29065-3.67413,3h-1.32587c-1.5166,0-2.75,1.2334-2.75,2.75v10c0,.68945-.56055,1.25-1.25,1.25h-1.32587c-.34863-1.70935-1.86359-3-3.67413-3-2.06738,0-3.75,1.68262-3.75,3.75s1.68262,3.75,3.75,3.75c1.81055,0,3.3255-1.29065,3.67413-3h1.32587c1.5166,0,2.75-1.2334,2.75-2.75V7c0-.68945.56055-1.25,1.25-1.25h1.32587Zm3.67413-3c1.24023,0,2.25,1.00977,2.25,2.25s-1.00977,2.25-2.25,2.25-2.25-1.00977-2.25-2.25,1.00977-2.25,2.25-2.25ZM5,21.25c-1.24023,0-2.25-1.00977-2.25-2.25s1.00977-2.25,2.25-2.25,2.25,1.00977,2.25,2.25-1.00977,2.25-2.25,2.25Zm14.75-5.92413v-1.32587c0-1.5166-1.2334-2.75-2.75-2.75h-3v1.5h3c.68945,0,1.25.56055,1.25,1.25v1.32587c-1.70935.34863-3,1.86359-3,3.67413,0,2.06738,1.68262,3.75,3.75,3.75s3.75-1.68262,3.75-3.75c0-1.81055-1.29065-3.3255-3-3.67413Zm-.75,5.92413c-1.24023,0-2.25-1.00977-2.25-2.25s1.00977-2.25,2.25-2.25,2.25,1.00977,2.25,2.25-1.00977,2.25-2.25,2.25ZM4.25,8.67413v1.32587c0,1.5166,1.2334,2.75,2.75,2.75h3v-1.5h-3c-.68945,0-1.25-.56055-1.25-1.25v-1.32587c1.70935-.34863,3-1.86359,3-3.67413,0-2.06738-1.68262-3.75-3.75-3.75s-3.75,1.68262-3.75,3.75c0,1.81055,1.29065,3.3255,3,3.67413Zm.75-5.92413c1.24023,0,2.25,1.00977,2.25,2.25s-1.00977,2.25-2.25,2.25-2.25-1.00977-2.25-2.25,1.00977-2.25,2.25-2.25Z" stroke-width="0"/></svg>