<?xml version="1.0" encoding="UTF-8"?><svg id="a" xmlns="http://www.w3.org/2000/svg" width="24" height="24" viewBox="0 0 24 24"><path d="m2.25,19c0,2.06787,1.68262,3.75,3.75,3.75s3.75-1.68213,3.75-3.75c0-1.81097-1.29065-3.32568-3-3.67419v-3.88013c.85101.80304,1.9903,1.30432,3.25,1.30432h4.32587c.34851,1.70966,1.86353,3,3.67413,3,2.06738,0,3.75-1.68213,3.75-3.75s-1.68262-3.75-3.75-3.75c-1.81061,0-3.32562,1.29034-3.67413,3h-4.32587c-1.56787,0-2.88-1.11609-3.18372-2.59546,1.67523-.37451,2.93372-1.8678,2.93372-3.65454,0-2.06787-1.68262-3.75-3.75-3.75s-3.75,1.68213-3.75,3.75c0,1.81097,1.29065,3.32568,3,3.67419v6.65161c-1.70935.34851-3,1.86322-3,3.67419Zm15.75-9.25c1.24023,0,2.25,1.00928,2.25,2.25s-1.00977,2.25-2.25,2.25-2.25-1.00928-2.25-2.25,1.00977-2.25,2.25-2.25ZM3.75,5c0-1.24072,1.00977-2.25,2.25-2.25s2.25,1.00928,2.25,2.25-1.00977,2.25-2.25,2.25-2.25-1.00928-2.25-2.25Zm2.25,11.75c1.24023,0,2.25,1.00928,2.25,2.25s-1.00977,2.25-2.25,2.25-2.25-1.00928-2.25-2.25,1.00977-2.25,2.25-2.25Z" stroke-width="0"/></svg>