<?xml version="1.0" encoding="UTF-8"?><svg id="a" xmlns="http://www.w3.org/2000/svg" width="24" height="24" viewBox="0 0 24 24"><path d="m1.46973,12.53025c-.29297-.29297-.29297-.76758,0-1.06055l4-4c.29297-.29297.76758-.29297,1.06055,0s.29297.76758,0,1.06055l-3.46973,3.46973,3.46973,3.46973c.29297.29297.29297.76758,0,1.06055-.14648.14648-.33838.21973-.53027.21973s-.38379-.07324-.53027-.21973L1.46973,12.53025Zm17.06055-5.06055c-.29297-.29297-.76758-.29297-1.06055,0s-.29297.76758,0,1.06055l3.46973,3.46973-3.46973,3.46973c-.29297.29297-.29297.76758,0,1.06055.14648.14648.33838.21973.53027.21973s.38379-.07324.53027-.21973l4-4c.29297-.29297.29297-.76758,0-1.06055l-4-4Zm-8.7124,13.25781c.06152.01514.12256.02246.18262.02246.33594,0,.64209-.22754.72705-.56787L14.72754,4.1821c.10059-.40186-.14355-.80908-.54541-.90967-.40527-.1001-.80908.14453-.90967.54541l-4,16c-.10059.40186.14355.80908.54541.90967Z" stroke-width="0"/></svg>