<?xml version="1.0" encoding="UTF-8"?><svg id="a" xmlns="http://www.w3.org/2000/svg" width="24" height="24" viewBox="0 0 24 24"><path d="m5.25,8.67419v1.32581c0,1.5166,1.2334,2.75,2.75,2.75h3.25v2.57581c-1.70935.34851-3,1.86322-3,3.67419,0,2.06787,1.68262,3.75,3.75,3.75s3.75-1.68213,3.75-3.75c0-1.81097-1.29065-3.32568-3-3.67419v-2.57581h3.25c1.5166,0,2.75-1.2334,2.75-2.75v-1.32581c1.70935-.34851,3-1.86322,3-3.67419,0-2.06787-1.68262-3.75-3.75-3.75s-3.75,1.68213-3.75,3.75c0,1.81097,1.29065,3.32568,3,3.67419v1.32581c0,.68945-.56055,1.25-1.25,1.25h-8c-.68945,0-1.25-.56055-1.25-1.25v-1.32581c1.70935-.34851,3-1.86322,3-3.67419,0-2.06787-1.68262-3.75-3.75-3.75s-3.75,1.68213-3.75,3.75c0,1.81097,1.29065,3.32568,3,3.67419Zm10.5-3.67419c0-1.24072,1.00977-2.25,2.25-2.25s2.25,1.00928,2.25,2.25-1.00977,2.25-2.25,2.25-2.25-1.00928-2.25-2.25Zm-1.5,14c0,1.24072-1.00977,2.25-2.25,2.25s-2.25-1.00928-2.25-2.25,1.00977-2.25,2.25-2.25,2.25,1.00928,2.25,2.25ZM6,2.75c1.24023,0,2.25,1.00928,2.25,2.25s-1.00977,2.25-2.25,2.25-2.25-1.00928-2.25-2.25,1.00977-2.25,2.25-2.25Z" stroke-width="0"/></svg>