<?xml version="1.0" encoding="UTF-8"?><svg id="a" xmlns="http://www.w3.org/2000/svg" width="24" height="24" viewBox="0 0 24 24"><path d="m6.75,15.32581v-1.32581c0-.68945.56055-1.25,1.25-1.25h8c1.5166,0,2.75-1.2334,2.75-2.75v-1.32581c1.70935-.34851,3-1.86322,3-3.67419,0-2.06787-1.68262-3.75-3.75-3.75s-3.75,1.68213-3.75,3.75c0,1.81097,1.29065,3.32568,3,3.67419v1.32581c0,.68945-.56055,1.25-1.25,1.25h-8c-.45239,0-.87323.12024-1.25.31451v-2.89032c1.70966-.34839,3-1.86316,3-3.67419,0-2.06787-1.68213-3.75-3.75-3.75s-3.75,1.68213-3.75,3.75c0,1.81104,1.29034,3.32581,3,3.67419v6.65161c-1.70966.34839-3,1.86316-3,3.67419,0,2.06787,1.68213,3.75,3.75,3.75s3.75-1.68213,3.75-3.75c0-1.81104-1.29034-3.32581-3-3.67419ZM15.75,5c0-1.24072,1.00977-2.25,2.25-2.25s2.25,1.00928,2.25,2.25-1.00977,2.25-2.25,2.25-2.25-1.00928-2.25-2.25Zm-12,0c0-1.24072,1.00928-2.25,2.25-2.25s2.25,1.00928,2.25,2.25-1.00928,2.25-2.25,2.25-2.25-1.00928-2.25-2.25Zm2.25,16.25c-1.24072,0-2.25-1.00928-2.25-2.25s1.00928-2.25,2.25-2.25,2.25,1.00928,2.25,2.25-1.00928,2.25-2.25,2.25Z" stroke-width="0"/></svg>