<?xml version="1.0" encoding="UTF-8"?><svg id="a" xmlns="http://www.w3.org/2000/svg" width="24" height="24" viewBox="0 0 24 24"><path d="m22.12603,17.2832c0-.00098-.00098-.00098-.00098-.00098l-.48926-.28223.49023-.2832c.28906-.16699.49512-.43652.58203-.75879.08594-.32324.04102-.66016-.12598-.94824l-.97656-1.69141c-.34473-.5957-1.11133-.80176-1.70703-.45703l-.46582.26855v-.62988c0-.68945-.56055-1.25-1.25-1.25h-2c-.68945,0-1.25.56055-1.25,1.25v.62988l-.46582-.26953c-.59863-.3418-1.36426-.13672-1.70703.45898l-.97754,1.69141c-.34277.5957-.1377,1.36133.45898,1.70703l.48828.28223-.48926.2832c-.5957.34473-.80078,1.11035-.45703,1.70703l.97559,1.68945c.34473.59766,1.11133.80371,1.70898.45898l.46484-.26855v.62988c0,.68945.56055,1.25,1.25,1.25h2c.68945,0,1.25-.56055,1.25-1.25v-.62988l.4668.26953c.59375.34082,1.36133.13672,1.70703-.45898l.97461-1.68945c.16797-.28906.21289-.62598.12695-.94922-.08691-.32227-.29297-.5918-.58203-.75879Zm-1.56152.83008l.59375.34277-.72656,1.25879-.6123-.35449c-.37891-.21875-.85742-.21582-1.20898-.01074-.01758.00879-.03418.01758-.05078.02832-.38672.22559-.62695.63574-.62695,1.07129v.80078h-1.5v-.80078c0-.43652-.24121-.84766-.63574-1.07812-.39453-.22656-.87207-.23047-1.24902-.01074l-.61426.35449-.72656-1.25879.59961-.3457c.38672-.22168.62695-.64551.62695-1.11328,0-.46191-.24023-.88574-.62402-1.10547l-.60254-.34766.72656-1.25879.6123.35352c.37891.22168.85938.21582,1.25684-.01367.38867-.22656.62988-.6377.62988-1.07422v-.80078h1.5v.80078c0,.43555.23926.84473.62598,1.07129.00391.00195.00781.00488.01074.00684.3916.22656.86914.22949,1.24902.01074l.61328-.35449.72656,1.25879-.59375.34277c-.39551.22852-.64062.65332-.64062,1.11719,0,.45605.24512.88086.64062,1.10938Zm-3.38184-3.36328c-1.24023,0-2.25,1.00977-2.25,2.25s1.00977,2.25,2.25,2.25,2.25-1.00977,2.25-2.25-1.00977-2.25-2.25-2.25Zm0,3c-.41309,0-.75-.33691-.75-.75s.33691-.75.75-.75.75.33691.75.75-.33691.75-.75.75Zm-6.58484,1.60742h-2.25891c-.87109,0-1.58008-.70898-1.58008-1.58008v-1.74609c-.00977-.00586-.04297-.03711-.06738-.05957l-1.44922.77637c-.75586.43652-1.72266.17578-2.15918-.57715l-1.62109-2.80957c-.43555-.75391-.17676-1.72266.57715-2.15918l1.36133-.78516c.02246-.0127.03809-.05762.03809-.1084,0-.06055-.01562-.10547-.03809-.11816l-1.36035-.78516c-.36523-.21191-.62695-.55176-.73633-.95898-.10938-.4082-.05273-.83496.1582-1.2002l1.62109-2.80762c.43457-.75391,1.40332-1.01367,2.1582-.58008l1.37988.79688c.01758-.01074.05078-.02344.08594-.03711l.05176-1.78809c0-.87109.70898-1.58008,1.58008-1.58008h3.32227c.87109,0,1.58008.70898,1.58008,1.58008v1.74609c.01367.00781.08789.07812.10156.08691l1.41504-.80371c.75488-.43457,1.72461-.1748,2.15918.5791l1.62109,2.80859c.21094.36426.26758.79102.1582,1.19922-.10938.40723-.37109.74707-.73535.95898l-1.03162.59473h-.7467c-.41217,0-.78998.12018-1.13306.29761.00458-.58844.31458-1.12598.81372-1.41479l1.34668-.77637c.03223-.01855.04883-.07617.0293-.1084l-1.62109-2.80957c-.02246-.04102-.0752-.05371-.11133-.0293l-1.37793.79492c-.47266.27441-1.0752.26953-1.57129-.01465-.00488-.00195-.00977-.00488-.01465-.00781-.49512-.28613-.80176-.80469-.80176-1.35547v-1.74609c0-.04395-.03613-.08008-.08008-.08008h-3.32227c-.04395,0-.08008.03613-.08008.08008v1.74609c0,.55078-.30664,1.06934-.80176,1.35547-.02734.01562-.05566.0293-.08398.04199-.50781.25098-1.05957.2373-1.50293-.02051l-1.37793-.79492c-.04004-.02246-.08789-.00781-.11035.03027l-1.62109,2.80859c-.01953.0332-.00293.09082.03027.10938l1.35938.78516c.49316.28516.78809.81152.78809,1.40723,0,.60547-.29492,1.13184-.78809,1.41699l-1.36035.78516c-.03809.02246-.05176.07129-.0293.11035l1.62109,2.80859c.02051.03711.07031.0498.11035.0293l1.37891-.7959c.47363-.27344,1.07617-.26953,1.57227.01562.01855.01074.03711.02148.05469.0332.45312.25781.76074.77734.76074,1.3291v1.74609c0,.04395.03613.08008.08008.08008h2.10297c-.10376.49463-.05621,1.01245.15594,1.5Zm2.35675-7.73529c.18097-.40375.28668-.84808.28668-1.31842,0-1.78711-1.4541-3.24121-3.24121-3.24121s-3.24121,1.4541-3.24121,3.24121,1.4541,3.24121,3.24121,3.24121c.48999,0,.95013-.11749,1.36694-.31305l.31079-.53754c.29858-.5199.75439-.87506,1.27679-1.0722Zm-2.95453.42279c-.95996,0-1.74121-.78125-1.74121-1.74121s.78125-1.74121,1.74121-1.74121,1.74121.78125,1.74121,1.74121-.78125,1.74121-1.74121,1.74121Z" stroke-width="0"/></svg>