<?xml version="1.0" encoding="UTF-8"?><svg id="a" xmlns="http://www.w3.org/2000/svg" width="24" height="24" viewBox="0 0 24 24"><path d="m20.75,17V7c0-.28418-.16016-.54395-.41504-.6709L12.33496,2.3291c-.21094-.10547-.45898-.10547-.66992,0L3.66504,6.3291c-.25488.12695-.41504.38672-.41504.6709v10c0,.28418.16016.54395.41504.6709l8,4c.00641.00317.01385.00183.02032.00482.09637.0451.20123.07428.31464.07428s.21826-.02917.31464-.07428c.00647-.00299.01392-.00165.02032-.00482l8-4c.25488-.12695.41504-.38672.41504-.6709Zm-9.5,2.78662l-6.5-3.25v-8.32324l6.5,3.25v8.32324Zm.75-9.625l-6.32324-3.16162,6.32324-3.16162,6.32324,3.16162-6.32324,3.16162Zm7.25,6.375l-6.5,3.25v-8.32324l6.5-3.25v8.32324Z" stroke-width="0"/></svg>