<?xml version="1.0" encoding="UTF-8"?><svg id="a" xmlns="http://www.w3.org/2000/svg" width="24" height="24" viewBox="0 0 24 24"><path d="m22.27832,12.30359l-4.52832-1.81134V3.99988c0-.30664-.18652-.58252-.47168-.69629l-5-2c-.17773-.07129-.37891-.07129-.55664,0l-5,2c-.28516.11377-.47168.38965-.47168.69629v6.49237l-4.52832,1.81134c-.28516.11377-.47168.38965-.47168.69629v7c0,.30664.18652.58252.47168.69629l4.98584,1.99432c.00049.00018.00098.00037.00146.00061l.0127.00507c.08887.03564.18359.05371.27832.05371s.18945-.01807.27832-.05371l.0127-.00507c.00049-.00024.00098-.00043.00146-.00061l4.70752-1.883,4.70752,1.883c.00049.00018.00098.00037.00146.00061l.0127.00507c.08887.03564.18359.05371.27832.05371s.18945-.01807.27832-.05371l.0127-.00507c.00049-.00024.00098-.00043.00146-.00061l4.98584-1.99432c.28516-.11377.47168-.38965.47168-.69629v-7c0-.30664-.18652-.58252-.47168-.69629ZM6.25,20.89221l-3.5-1.40015v-5.38446l3.5,1.3999v5.3847Zm.75-6.69995l-2.9809-1.19226,2.9809-1.1925,2.98096,1.1925-2.98096,1.19226Zm4.25,5.2998l-3.5,1.40015v-5.3847l3.5-1.39984v5.3844Zm0-7.59985l-3.5-1.40015v-5.38446l3.5,1.3999v5.3847Zm-2.2309-7.89221l2.9809-1.1925,2.98096,1.1925-2.98096,1.19226-2.9809-1.19226Zm7.2309,1.10767v5.3844l-3.5,1.40015v-5.3847l3.5-1.39984Zm0,15.78455l-3.5-1.40015v-5.38446l3.5,1.3999v5.3847Zm.75-6.69995l-2.9809-1.19226,2.9809-1.1925,2.98096,1.1925-2.98096,1.19226Zm4.25,5.2998l-3.5,1.40015v-5.3847l3.5-1.39984v5.3844Z" stroke-width="0"/></svg>