<?xml version="1.0" encoding="UTF-8"?><svg id="a" xmlns="http://www.w3.org/2000/svg" width="24" height="24" viewBox="0 0 24 24"><path d="m22.25732,15.22461c-1.41309,4.50098-5.53516,7.52539-10.25732,7.52539-5.92773,0-10.75-4.82227-10.75-10.75S6.07227,1.25,12,1.25c.41406,0,.75.33594.75.75s-.33594.75-.75.75C6.89941,2.75,2.75,6.89941,2.75,12s4.14941,9.25,9.25,9.25c4.06348,0,7.61035-2.60156,8.82666-6.47461.12354-.39551.5415-.61621.93994-.49121.39502.12402.61523.54492.49072.94043ZM15.22461,1.74219c-.39648-.125-.81641.0957-.93994.49121-.12451.39551.09521.81641.49072.94043,3.87256,1.21582,6.47461,4.76367,6.47461,8.82617,0,.41406.33594.75.75.75s.75-.33594.75-.75c0-4.72168-3.02393-8.84375-7.52539-10.25781Z" stroke-width="0"/></svg>