<?xml version="1.0" encoding="UTF-8"?><svg id="a" xmlns="http://www.w3.org/2000/svg" width="24" height="24" viewBox="0 0 24 24"><path d="m16.11621,2.05566c-.51953-.51953-1.20996-.80566-1.94434-.80566H6c-1.5166,0-2.75,1.2334-2.75,2.75v16c0,1.5166,1.2334,2.75,2.75,2.75h12c1.5166,0,2.75-1.2334,2.75-2.75V7.82812c0-.73438-.28613-1.4248-.80566-1.94434l-3.82812-3.82812Zm-1.36621.85687c.10864.05768.21808.11609.30566.20367l3.82812,3.82812c.08759.08759.146.19702.20367.30566h-3.08746c-.68945,0-1.25-.56055-1.25-1.25v-3.08746Zm4.5,17.08746c0,.68945-.56055,1.25-1.25,1.25H6c-.68945,0-1.25-.56055-1.25-1.25V4c0-.68945.56055-1.25,1.25-1.25h7.25v3.25c0,1.5166,1.2334,2.75,2.75,2.75h3.25v11.25Zm-3.71973-8.53027l2,2c.29297.29297.29297.76758,0,1.06055l-2,2c-.14648.14648-.33789.21973-.53027.21973s-.38379-.07324-.53027-.21973c-.29297-.29297-.29297-.76758,0-1.06055l1.46973-1.46973-1.46973-1.46973c-.29297-.29297-.29297-.76758,0-1.06055s.76758-.29297,1.06055,0Zm-6,1.06055l-1.46973,1.46973,1.46973,1.46973c.29297.29297.29297.76758,0,1.06055-.14648.14648-.33838.21973-.53027.21973s-.38379-.07324-.53027-.21973l-2-2c-.29297-.29297-.29297-.76758,0-1.06055l2-2c.29297-.29297.76758-.29297,1.06055,0s.29297.76758,0,1.06055Zm4.18164-1.29297l-2.00049,6c-.10449.31445-.39746.5127-.71143.5127-.07861,0-.15869-.0127-.2373-.03809-.39307-.13184-.60498-.55566-.47412-.94922l2-6c.13037-.39258.55176-.60254.94873-.47461.39258.13184.60547.55566.47461.94922Z" stroke-width="0"/></svg>