<?xml version="1.0" encoding="UTF-8"?><svg id="a" xmlns="http://www.w3.org/2000/svg" width="24" height="24" viewBox="0 0 24 24"><path d="m9.24966,13.2334v6.7666c0,.96484.78516,1.75,1.75,1.75h2c.96484,0,1.75-.78516,1.75-1.75v-6.7666l5.71582-8.3042c.34814-.5249.37891-1.16748.08301-1.71924-.31787-.59229-.95264-.95996-1.65625-.95996H5.10708c-.70361,0-1.33838.36768-1.65625.95996-.2959.55176-.26514,1.19434.09033,1.72998l5.7085,8.29346ZM4.7726,3.91943c.04395-.08203.15479-.16943.33447-.16943h13.78516c.17969,0,.29053.0874.33447.16943.04297.07959.01807.13623-.00391.16992l-5.84082,8.48535c-.08643.125-.13232.27344-.13232.42529v7c0,.1377-.1123.25-.25.25h-2c-.1377,0-.25-.1123-.25-.25v-7c0-.15186-.0459-.30029-.13232-.42529L4.78384,4.1001c-.0293-.04443-.0542-.10107-.01123-.18066Z" stroke-width="0"/></svg>