<?xml version="1.0" encoding="UTF-8"?><svg id="a" xmlns="http://www.w3.org/2000/svg" width="24" height="24" viewBox="0 0 24 24"><path d="m22.53027,12.53027l-4,4c-.14648.14648-.33838.21973-.53027.21973s-.38379-.07324-.53027-.21973c-.29297-.29297-.29297-.76758,0-1.06055l2.71973-2.71973h-5.47742c-.38544,5.02582-4.58923,9-9.71204,9-.41406,0-.75-.33594-.75-.75s.33594-.75.75-.75c4.54883,0,8.25-3.70117,8.25-8.25S9.54883,3.75,5,3.75c-.41406,0-.75-.33594-.75-.75s.33594-.75.75-.75c5.1228,0,9.3266,3.97418,9.71204,9h5.47742l-2.71973-2.71973c-.29297-.29297-.29297-.76758,0-1.06055s.76758-.29297,1.06055,0l4,4c.29297.29297.29297.76758,0,1.06055Zm-17.53027,3.21973c-2.06787,0-3.75-1.68262-3.75-3.75s1.68213-3.75,3.75-3.75c1.81097,0,3.32568,1.29065,3.67419,3h3.28418c.02643.24664.04163.49646.04163.75s-.0152.50336-.04163.75h-3.28418c-.34851,1.70935-1.86322,3-3.67419,3Zm0-1.5c1.24072,0,2.25-1.00977,2.25-2.25s-1.00928-2.25-2.25-2.25-2.25,1.00977-2.25,2.25,1.00928,2.25,2.25,2.25Z" stroke-width="0"/></svg>