<?xml version="1.0" encoding="UTF-8"?><svg id="a" xmlns="http://www.w3.org/2000/svg" width="24" height="24" viewBox="0 0 24 24"><path d="m22.53027,1.46973c-.29297-.29297-.76758-.29297-1.06055,0l-2.70172,2.70172c-1.85529-1.31561-4.5672-1.08997-6.28656.63031l-.54736.54688c-.68213.68262-.68213,1.79199,0,2.47461l4.24268,4.24219c.34082.34082.78906.51172,1.2373.51172s.89648-.1709,1.2373-.51172l.70703-.70703c.93066-.92969,1.42383-2.16699,1.38965-3.48242-.02533-.97528-.3418-1.89154-.90228-2.66119l2.68451-2.68451c.29297-.29297.29297-.76758,0-1.06055Zm-4.23242,8.82812l-.70703.70703c-.09766.09766-.25586.09766-.35352,0l-4.24268-4.24219c-.09717-.09766-.09717-.25586,0-.35352l.54736-.54688c.69922-.7002,1.62988-1.05762,2.53516-1.05762.7666,0,1.51465.25586,2.09277.77637.67285.60547,1.05566,1.43457,1.0791,2.33398.02344.90039-.31445,1.74609-.95117,2.38281Zm-6.58545,3.75781l-.88385.88385-1.76794-1.7677.88373-.88373c.29297-.29297.29297-.76758,0-1.06055s-.76758-.29297-1.06055,0l-.88379.88379-.17676-.17676c-.66064-.66211-1.81445-.65918-2.47461,0l-.54736.54688c-1.71985,1.71942-1.94708,4.43048-.6297,6.28644l-2.70184,2.70184c-.29297.29297-.29297.76758,0,1.06055.14648.14648.33838.21973.53027.21973s.38379-.07324.53027-.21973l2.68469-2.68469c.76904.56024,1.68481.87714,2.65955.90247.04346.00098.08643.00195.12939.00195,1.26758,0,2.45459-.49121,3.35498-1.3916l.70703-.70703c.68213-.68262.68213-1.79199,0-2.47461l-.17676-.17676.88379-.88379c.29248-.29297.29248-.76758,0-1.06055-.29297-.29297-.76758-.29297-1.06055,0Zm-.70703,3.53516l-.70703.70703c-.63672.63672-1.47754.99121-2.38428.9502-.8999-.02344-1.72852-.40625-2.3335-1.07812-1.13574-1.26172-1.00977-3.33691.28125-4.62793l.54785-.54688c.06348-.06348.1377-.07324.17627-.07324s.11279.00977.17676.07324l.70685.70679c.00006.00006.00012.00018.00018.00024s.00018.00012.00024.00018l3.5354,3.53497c.09717.09766.09717.25586,0,.35352Z" stroke-width="0"/></svg>