<?xml version="1.0" encoding="UTF-8"?><svg id="a" xmlns="http://www.w3.org/2000/svg" width="24" height="24" viewBox="0 0 24 24"><path d="m8.875,11v2h-2v-2h2Zm-6,2h2v-2h-2v2Zm15,6v2h4v-2h-3v-2h-2v2h1Zm-5-4v2h-1v2h-1v2h-1.56769c-.31671.45215-.83966.75-1.43231.75H3.875c-.96484,0-1.75-.78516-1.75-1.75v-4c0-.96484.78516-1.75,1.75-1.75h4c.37219,0,.71606.11877,1,.31769v-1.56769h2v-1h2v2h-2v1h-1.56769c.19891.28394.31769.62781.31769,1v3h.25v-2h1v-2h2Zm-4.75,1c0-.1377-.1123-.25-.25-.25H3.875c-.1377,0-.25.1123-.25.25v4c0,.1377.1123.25.25.25h4c.1377,0,.25-.1123.25-.25v-4Zm4.75,1v2h2v-2h-2Zm2,4h2v-2h-2v2Zm-2-12v-2h-2v2h2Zm7,2h2v2h-1v2h1v2h-2v-2h-1v-1h-2v3h-2v-4h-1v-2h-1v-2h1.56769c-.19891-.28394-.31769-.62781-.31769-1v-1h-1.25v-2h1.25v-1c0-.96484.78516-1.75,1.75-1.75h4c.96484,0,1.75.78516,1.75,1.75v4c0,.96484-.78516,1.75-1.75,1.75h-4c-.37219,0-.71606-.11877-1-.31769v1.56769h1v2h1v-1h2v1h1v-2Zm-4.25-3c0,.1377.1123.25.25.25h4c.1377,0,.25-.1123.25-.25v-4c0-.1377-.1123-.25-.25-.25h-4c-.1377,0-.25.1123-.25.25v4Zm-8.75,1.75v1.25h-2v-1.25h-1c-.96484,0-1.75-.78516-1.75-1.75v-4c0-.96484.78516-1.75,1.75-1.75h4c.96484,0,1.75.78516,1.75,1.75v1h1.25v2h-1.25v1c0,.37219-.11877.71606-.31769,1h1.56769v2h-2v-1.56769c-.28394.19891-.62781.31769-1,.31769h-1Zm1-1.5c.1377,0,.25-.1123.25-.25v-4c0-.1377-.1123-.25-.25-.25H3.875c-.1377,0-.25.1123-.25.25v4c0,.1377.1123.25.25.25h4Zm-1.5-3.25h-1c-.27612,0-.5.22382-.5.5v1c0,.27612.22388.5.5.5h1c.27612,0,.5-.22388.5-.5v-1c0-.27618-.22388-.5-.5-.5Zm0,12h-1c-.27612,0-.5.22382-.5.5v1c0,.27612.22388.5.5.5h1c.27612,0,.5-.22388.5-.5v-1c0-.27618-.22388-.5-.5-.5Zm11-10h1c.27612,0,.5-.22388.5-.5v-1c0-.27618-.22388-.5-.5-.5h-1c-.27612,0-.5.22382-.5.5v1c0,.27612.22388.5.5.5Z" stroke-width="0"/></svg>