<?xml version="1.0" encoding="UTF-8"?><svg id="a" xmlns="http://www.w3.org/2000/svg" width="24" height="24" viewBox="0 0 24 24"><path d="m22.75,12c0,5.92773-4.82227,10.75-10.75,10.75S1.25,17.92773,1.25,12,6.07227,1.25,12,1.25c.41406,0,.75.33594.75.75v8.14832c.73236.29694,1.25,1.01276,1.25,1.85168,0,1.10455-.89545,2-2,2s-2-.89545-2-2c0-.83893.51764-1.55475,1.25-1.85168v-3.32245c-2.53748.36786-4.5,2.53644-4.5,5.17413,0,2.89453,2.35547,5.25,5.25,5.25s5.25-2.35547,5.25-5.25c0-2.14929-1.32153-4.05188-3.25-4.84888v-1.5733c2.78265.86816,4.75,3.45398,4.75,6.42218,0,3.72168-3.02832,6.75-6.75,6.75s-6.75-3.02832-6.75-6.75c0-3.46796,2.63031-6.33105,6-6.70575v-2.51398C6.49902,3.16309,2.75,7.15234,2.75,12c0,5.10059,4.14941,9.25,9.25,9.25s9.25-4.14941,9.25-9.25c0-4.41333-3.1087-8.10889-7.25-9.02618v-.97382c0-.19965-.03815-.38855-.09259-.57043,5.01947.90399,8.84259,5.29456,8.84259,10.57043Z" stroke-width="0"/></svg>