<?xml version="1.0" encoding="UTF-8"?><svg id="a" xmlns="http://www.w3.org/2000/svg" width="24" height="24" viewBox="0 0 24 24"><path d="m17.75,15v-6c0-1.5166-1.2334-2.75-2.75-2.75h-6c-1.5166,0-2.75,1.2334-2.75,2.75v6c0,1.5166,1.2334,2.75,2.75,2.75h6c1.5166,0,2.75-1.2334,2.75-2.75Zm-1.5,0c0,.68945-.56055,1.25-1.25,1.25h-6c-.68945,0-1.25-.56055-1.25-1.25v-6c0-.68945.56055-1.25,1.25-1.25h6c.68945,0,1.25.56055,1.25,1.25v6ZM2.20001,2h1.79999l-2,2v-1.79999c0-.11047.08954-.20001.20001-.20001Zm19.79999.20001v1.79999l-2-2h1.79999c.11047,0,.20001.08954.20001.20001ZM2,20l2,2h-1.79999c-.11047,0-.20001-.08954-.20001-.20001v-1.79999Zm18,2l2-2v1.79999c0,.11047-.08954.20001-.20001.20001h-1.79999Zm2-15.5v1c0,.27612-.22388.5-.5.5h-1c-.27612,0-.5-.22388-.5-.5v-1c0-.27618.22388-.5.5-.5h1c.27612,0,.5.22382.5.5Zm0,5v1c0,.27612-.22388.5-.5.5h-1c-.27612,0-.5-.22388-.5-.5v-1c0-.27618.22388-.5.5-.5h1c.27612,0,.5.22382.5.5Zm0,5v1c0,.27612-.22388.5-.5.5h-1c-.27612,0-.5-.22388-.5-.5v-1c0-.27618.22388-.5.5-.5h1c.27612,0,.5.22382.5.5ZM4,6.5v1c0,.27612-.22388.5-.5.5h-1c-.27612,0-.5-.22388-.5-.5v-1c0-.27618.22388-.5.5-.5h1c.27612,0,.5.22382.5.5Zm0,5v1c0,.27612-.22388.5-.5.5h-1c-.27612,0-.5-.22388-.5-.5v-1c0-.27618.22388-.5.5-.5h1c.27612,0,.5.22382.5.5Zm0,5v1c0,.27612-.22388.5-.5.5h-1c-.27612,0-.5-.22388-.5-.5v-1c0-.27618.22388-.5.5-.5h1c.27612,0,.5.22382.5.5Zm14,4v1c0,.27612-.22388.5-.5.5h-1c-.27612,0-.5-.22388-.5-.5v-1c0-.27618.22388-.5.5-.5h1c.27612,0,.5.22382.5.5Zm-5,0v1c0,.27612-.22388.5-.5.5h-1c-.27612,0-.5-.22388-.5-.5v-1c0-.27618.22388-.5.5-.5h1c.27612,0,.5.22382.5.5Zm-5,0v1c0,.27612-.22388.5-.5.5h-1c-.27612,0-.5-.22388-.5-.5v-1c0-.27618.22388-.5.5-.5h1c.27612,0,.5.22382.5.5ZM18,2.5v1c0,.27612-.22388.5-.5.5h-1c-.27612,0-.5-.22388-.5-.5v-1c0-.27618.22388-.5.5-.5h1c.27612,0,.5.22382.5.5Zm-7,1v-1c0-.27618.22388-.5.5-.5h1c.27612,0,.5.22382.5.5v1c0,.27612-.22388.5-.5.5h-1c-.27612,0-.5-.22388-.5-.5Zm-5,0v-1c0-.27618.22388-.5.5-.5h1c.27612,0,.5.22382.5.5v1c0,.27612-.22388.5-.5.5h-1c-.27612,0-.5-.22388-.5-.5Z" stroke-width="0"/></svg>