<?xml version="1.0" encoding="UTF-8"?><svg id="a" xmlns="http://www.w3.org/2000/svg" width="24" height="24" viewBox="0 0 24 24"><path d="m20.33496,5.3291L12.33545,1.3291c-.21094-.10547-.45996-.10547-.6709,0L3.66455,5.3291c-.25391.12695-.41455.38672-.41455.6709,0,6.49609,3.10303,12.70166,8.2998,16.6001.1333.1001.29199.1499.4502.1499s.31689-.0498.4502-.1499c5.19727-3.89844,8.2998-10.104,8.2998-16.6001,0-.28418-.16016-.54395-.41504-.6709Zm-8.33496,15.72266c-4.43018-3.53564-7.10645-8.92188-7.24463-14.59082l7.24463-3.62256,7.24414,3.62256c-.1377,5.66895-2.81348,11.05518-7.24414,14.59082Z" stroke-width="0"/></svg>