<?xml version="1.0" encoding="UTF-8"?><svg id="a" xmlns="http://www.w3.org/2000/svg" width="24" height="24" viewBox="0 0 24 24"><path d="m20.33545,5.3291L12.33545,1.3291c-.21094-.10547-.45996-.10547-.6709,0L3.66455,5.3291c-.25391.12695-.41455.38672-.41455.6709,0,6.49609,3.10303,12.70166,8.2998,16.6001.1333.1001.29199.1499.4502.1499s.31689-.0498.4502-.1499c5.19678-3.89844,8.2998-10.104,8.2998-16.6001,0-.28418-.16064-.54395-.41455-.6709Zm-8.33545,15.72266c-4.43018-3.53564-7.10645-8.92188-7.24463-14.59082l7.24463-3.62256,7.24463,3.62256c-.13818,5.66895-2.81445,11.05518-7.24463,14.59082Zm-3.75-11.05176c0,2.06787,1.68213,3.75,3.75,3.75s3.75-1.68213,3.75-3.75-1.68213-3.75-3.75-3.75-3.75,1.68213-3.75,3.75Zm6,0c0,1.24072-1.00928,2.25-2.25,2.25s-2.25-1.00928-2.25-2.25,1.00928-2.25,2.25-2.25,2.25,1.00928,2.25,2.25Z" stroke-width="0"/></svg>