<?xml version="1.0" encoding="UTF-8"?><svg id="a" xmlns="http://www.w3.org/2000/svg" width="24" height="24" viewBox="0 0 24 24"><path d="m20.33496,5.3291L12.33496,1.3291c-.21094-.10547-.45898-.10547-.66992,0L3.66504,5.3291c-.25488.12695-.41504.38672-.41504.6709,0,6.49609,3.10254,12.70166,8.2998,16.6001.13379.1001.29199.1499.4502.1499s.31641-.0498.4502-.1499c5.19727-3.89844,8.2998-10.104,8.2998-16.6001,0-.28418-.16016-.54395-.41504-.6709Zm-8.33496,15.72266c-4.43066-3.53564-7.10645-8.92188-7.24414-14.59082l7.24414-3.62256,7.24414,3.62256c-.1377,5.66895-2.81348,11.05518-7.24414,14.59082Zm-1-9.1123l3.46973-3.46973c.29297-.29297.76758-.29297,1.06055,0s.29297.76758,0,1.06055l-4,4c-.14648.14648-.33789.21973-.53027.21973s-.38379-.07324-.53027-.21973l-2-2c-.29297-.29297-.29297-.76758,0-1.06055s.76758-.29297,1.06055,0l1.46973,1.46973Z" stroke-width="0"/></svg>