<?xml version="1.0" encoding="UTF-8"?><svg id="a" xmlns="http://www.w3.org/2000/svg" width="24" height="24" viewBox="0 0 24 24"><path d="m19,2.25H5c-1.5166,0-2.75,1.2334-2.75,2.75v14c0,1.5166,1.2334,2.75,2.75,2.75h14c1.5166,0,2.75-1.2334,2.75-2.75V5c0-1.5166-1.2334-2.75-2.75-2.75Zm-10.75,18h-3.25c-.68945,0-1.25-.56055-1.25-1.25V5c0-.68945.56055-1.25,1.25-1.25h3.25v16.5Zm12-1.25c0,.68945-.56055,1.25-1.25,1.25h-9.25V3.75h9.25c.68945,0,1.25.56055,1.25,1.25v14ZM5.5,5.25h1c.41406,0,.75.33594.75.75s-.33594.75-.75.75h-1c-.41406,0-.75-.33594-.75-.75s.33594-.75.75-.75Zm1.75,3.75c0,.41406-.33594.75-.75.75h-1c-.41406,0-.75-.33594-.75-.75s.33594-.75.75-.75h1c.41406,0,.75.33594.75.75Zm0,3c0,.41406-.33594.75-.75.75h-1c-.41406,0-.75-.33594-.75-.75s.33594-.75.75-.75h1c.41406,0,.75.33594.75.75Z" stroke-width="0"/></svg>