<?xml version="1.0" encoding="UTF-8"?><svg id="a" xmlns="http://www.w3.org/2000/svg" width="24" height="24" viewBox="0 0 24 24"><path d="m20,3.25H4c-1.5166,0-2.75,1.2334-2.75,2.75v12c0,1.5166,1.2334,2.75,2.75,2.75h16c1.5166,0,2.75-1.2334,2.75-2.75V6c0-1.5166-1.2334-2.75-2.75-2.75Zm1.25,14.75c0,.68945-.56055,1.25-1.25,1.25H4c-.68945,0-1.25-.56055-1.25-1.25V6c0-.68945.56055-1.25,1.25-1.25h16c.68945,0,1.25.56055,1.25,1.25v12Zm-10.71973-6.53027c.29297.29297.29297.76758,0,1.06055l-4,4c-.14648.14648-.33838.21973-.53027.21973s-.38379-.07324-.53027-.21973c-.29297-.29297-.29297-.76758,0-1.06055l3.46973-3.46973-3.46973-3.46973c-.29297-.29297-.29297-.76758,0-1.06055s.76758-.29297,1.06055,0l4,4Zm8.21973,4.53027c0,.41406-.33594.75-.75.75h-6c-.41406,0-.75-.33594-.75-.75s.33594-.75.75-.75h6c.41406,0,.75.33594.75.75Z" stroke-width="0"/></svg>