<?xml version="1.0" encoding="UTF-8"?><svg id="a" xmlns="http://www.w3.org/2000/svg" width="24" height="24" viewBox="0 0 24 24"><path d="m10.53027,11.53027l-6,6c-.14648.14648-.33838.21973-.53027.21973s-.38379-.07324-.53027-.21973c-.29297-.29297-.29297-.76758,0-1.06055l5.46973-5.46973L3.46973,5.53027c-.29297-.29297-.29297-.76758,0-1.06055s.76758-.29297,1.06055,0l6,6c.29297.29297.29297.76758,0,1.06055Zm9.46973,6.71973h-10c-.41406,0-.75.33594-.75.75s.33594.75.75.75h10c.41406,0,.75-.33594.75-.75s-.33594-.75-.75-.75Z" stroke-width="0"/></svg>