<?xml version="1.0" encoding="UTF-8"?><svg id="a" xmlns="http://www.w3.org/2000/svg" width="24" height="24" viewBox="0 0 24 24"><path d="m3.75,17.25h6.25v1.5H3.75v2.25c0,.41406-.33594.75-.75.75s-.75-.33594-.75-.75V3c0-.41406.33594-.75.75-.75s.75.33594.75.75v2.25h2.25v1.5h-2.25v4.5h12.25v1.5H3.75v4.5Zm4.25-7.5c.41406,0,.75-.33594.75-.75v-2.25h12.25c.41406,0,.75-.33594.75-.75s-.33594-.75-.75-.75h-12.25v-2.25c0-.41406-.33594-.75-.75-.75s-.75.33594-.75.75v6c0,.41406.33594.75.75.75Zm13,7.5h-8.25v-2.25c0-.41406-.33594-.75-.75-.75s-.75.33594-.75.75v6c0,.41406.33594.75.75.75s.75-.33594.75-.75v-2.25h8.25c.41406,0,.75-.33594.75-.75s-.33594-.75-.75-.75Zm0-6h-2.25v-2.25c0-.41406-.33594-.75-.75-.75s-.75.33594-.75.75v6c0,.41406.33594.75.75.75s.75-.33594.75-.75v-2.25h2.25c.41406,0,.75-.33594.75-.75s-.33594-.75-.75-.75Z" stroke-width="0"/></svg>