<?xml version="1.0" encoding="UTF-8"?><svg id="a" xmlns="http://www.w3.org/2000/svg" width="24" height="24" viewBox="0 0 24 24"><path d="m16,5.25c-3.72217,0-6.75,3.02832-6.75,6.75s3.02783,6.75,6.75,6.75c3.72168,0,6.75-3.02832,6.75-6.75s-3.02832-6.75-6.75-6.75Zm0,12c-2.89453,0-5.25-2.35547-5.25-5.25s2.35547-5.25,5.25-5.25,5.25,2.35547,5.25,5.25-2.35547,5.25-5.25,5.25ZM2.75,12c0,2.89453,2.35498,5.25,5.25,5.25.41406,0,.75.33594.75.75s-.33594.75-.75.75c-3.72217,0-6.75-3.02832-6.75-6.75s3.02783-6.75,6.75-6.75c.41406,0,.75.33594.75.75s-.33594.75-.75.75c-2.89502,0-5.25,2.35547-5.25,5.25Z" stroke-width="0"/></svg>