<?xml version="1.0" encoding="UTF-8"?><svg id="a" xmlns="http://www.w3.org/2000/svg" width="24" height="24" viewBox="0 0 24 24"><path d="m15,17.75c1.5166,0,2.75-1.2334,2.75-2.75V5c0-1.5166-1.2334-2.75-2.75-2.75H5c-1.5166,0-2.75,1.2334-2.75,2.75v10c0,1.5166,1.2334,2.75,2.75,2.75h10ZM7.75,3.75h7.25c.68945,0,1.25.56055,1.25,1.25v1.25H7.75v-2.5Zm-4,1.25c0-.68945.56055-1.25,1.25-1.25h1.25v2.5h-2.5v-1.25Zm0,10v-7.25h12.5v7.25c0,.68945-.56055,1.25-1.25,1.25H5c-.68945,0-1.25-.56055-1.25-1.25Zm18-7v10c0,2.06787-1.68262,3.75-3.75,3.75H7c-1.5166,0-2.75-1.2334-2.75-2.75v-.07587c.24347.04645.49316.07587.75.07587h.75c0,.68945.56055,1.25,1.25,1.25h11c1.24023,0,2.25-1.00928,2.25-2.25v-10c0-.87976-.51245-1.63519-1.25-2.00488v-.99512c0-.21118-.0307-.41431-.06238-.61676,1.61249.41937,2.81238,1.87457,2.81238,3.61676Z" stroke-width="0"/></svg>