<?xml version="1.0" encoding="UTF-8"?><svg id="a" xmlns="http://www.w3.org/2000/svg" width="24" height="24" viewBox="0 0 24 24"><path d="m19,2.25H5c-1.5166,0-2.75,1.2334-2.75,2.75v14c0,1.5166,1.2334,2.75,2.75,2.75h14c1.5166,0,2.75-1.2334,2.75-2.75V5c0-1.5166-1.2334-2.75-2.75-2.75ZM3.75,5c0-.68945.56055-1.25,1.25-1.25h1.25v2.5h-2.5v-1.25Zm16.5,14c0,.68945-.56055,1.25-1.25,1.25H5c-.68945,0-1.25-.56055-1.25-1.25V7.75h16.5v11.25Zm0-12.75H7.75v-2.5h11.25c.68945,0,1.25.56055,1.25,1.25v1.25Zm-13,10.75v-2c0-.41406.33594-.75.75-.75s.75.33594.75.75v2c0,.41406-.33594.75-.75.75s-.75-.33594-.75-.75Zm4,0v-4c0-.41406.33594-.75.75-.75s.75.33594.75.75v4c0,.41406-.33594.75-.75.75s-.75-.33594-.75-.75Zm4,0v-6c0-.41406.33594-.75.75-.75s.75.33594.75.75v6c0,.41406-.33594.75-.75.75s-.75-.33594-.75-.75Z" stroke-width="0"/></svg>