<?xml version="1.0" encoding="UTF-8"?><svg id="a" xmlns="http://www.w3.org/2000/svg" width="24" height="24" viewBox="0 0 24 24"><path d="m19,2.25H5c-1.5166,0-2.75,1.2334-2.75,2.75v14c0,1.5166,1.2334,2.75,2.75,2.75h14c1.5166,0,2.75-1.2334,2.75-2.75V5c0-1.5166-1.2334-2.75-2.75-2.75ZM3.75,5c0-.68945.56055-1.25,1.25-1.25h1.25v2.5h-2.5v-1.25Zm16.5,14c0,.68945-.56055,1.25-1.25,1.25H5c-.68945,0-1.25-.56055-1.25-1.25V7.75h16.5v11.25Zm0-12.75H7.75v-2.5h11.25c.68945,0,1.25.56055,1.25,1.25v1.25Zm-5.78027,9.21973l1.46973-1.46973-1.46973-1.46973c-.29297-.29297-.29297-.76758,0-1.06055s.76758-.29297,1.06055,0l2,2c.29297.29297.29297.76758,0,1.06055l-2,2c-.14648.14648-.33789.21973-.53027.21973s-.38379-.07324-.53027-.21973c-.29297-.29297-.29297-.76758,0-1.06055Zm-8-.93945c-.29297-.29297-.29297-.76758,0-1.06055l2-2c.29297-.29297.76758-.29297,1.06055,0s.29297.76758,0,1.06055l-1.46973,1.46973,1.46973,1.46973c.29297.29297.29297.76758,0,1.06055-.14648.14648-.33789.21973-.53027.21973s-.38379-.07324-.53027-.21973l-2-2Zm3.81836,2.23242l2-6c.13184-.39209.55176-.60791.94922-.47412.39258.13086.60547.55566.47461.94873l-2,6c-.10547.31396-.39746.5127-.71191.5127-.07812,0-.1582-.01221-.2373-.03857-.39258-.13086-.60547-.55566-.47461-.94873Z" stroke-width="0"/></svg>